<svg id="OBJECTS" xmlns="http://www.w3.org/2000/svg" xmlns:xlink="http://www.w3.org/1999/xlink" viewBox="0 0 279.77 302.11"><defs><style>.cls-1{fill:none;}.cls-2{fill:#353535;}.cls-3{isolation:isolate;}.cls-4{fill:#2c3f54;}.cls-5{fill:#fce2be;}.cls-6{fill:#f48134;}.cls-7{fill:#dd6b1d;}.cls-8{fill:#ffa04a;}.cls-9{fill:#f4c551;}.cls-10{fill:#d8a739;}.cls-11{fill:#ffd96e;}.cls-12{fill:#b58852;}.cls-13{fill:#a06c33;}.cls-14{fill:#fff;}.cls-15{fill:#dae5ea;}.cls-16{fill:#b9ced6;}.cls-17{fill:#1e3142;}.cls-18{fill:#47627a;}.cls-19{clip-path:url(#clip-path);}.cls-20{fill:#ed7e24;}.cls-21{fill:#e8312d;}.cls-22{fill:#ff5148;}.cls-23{fill:#3f3f3f;}.cls-24{fill:#181919;}.cls-25{fill:#212426;}.cls-26{fill:#142430;}.cls-27{fill:#c5c5c5;}.cls-28{fill:#599ece;}.cls-29{fill:#a7a7a7;}.cls-30{fill:#969696;}.cls-31{fill:#91a2aa;}.cls-32{clip-path:url(#clip-path-5);}.cls-33{fill:#b7d7e5;}.cls-34{fill:#c9c9c9;}.cls-35{fill:#aaa;}.cls-36{fill:#777;}.cls-37{fill:#5b5b5b;}.cls-38{fill:#1e1e1e;}.cls-39{fill:#0a0a0a;}.cls-40{clip-path:url(#clip-path-6);}.cls-41{fill:#a4a4a4;}.cls-42{fill:url(#Dégradé_sans_nom_7);}.cls-43{fill:url(#Dégradé_sans_nom_198);}.cls-44{clip-path:url(#clip-path-7);}.cls-45{clip-path:url(#clip-path-8);}.cls-46{fill:#775137;}</style><clipPath id="clip-path" transform="translate(-129.33 -24.17)"><path id="SVGID" class="cls-1" d="M168.06,88.09v71.34h14.11a4,4,0,0,1-.42-1.27L177,128v.09a2.23,2.23,0,0,1-.09-.76h1.61c0,1.94,1.27,3.88,3.8,5.4,5.24,3.13,13.86,3.22,19.27.17,2.71-1.52,4.15-3.55,4.23-5.57h1.61a2.23,2.23,0,0,1-.09.76v-.17l-4.56,30.26a4.66,4.66,0,0,1-.51,1.35H214V88.09Z"/></clipPath><clipPath id="clip-path-5" transform="translate(-129.33 -24.17)"><polygon id="SVGID-5" data-name="SVGID" class="cls-1" points="368.72 115.89 368.47 197.72 227.23 116.15 227.48 34.33 368.72 115.89"/></clipPath><clipPath id="clip-path-6" transform="translate(-129.33 -24.17)"><path id="SVGID-6" data-name="SVGID" class="cls-1" d="M376.75,252.07v2.28c0,1.86,1.27,3.72,3.64,5.15,4.9,2.88,12.93,2.88,17.92,0,2.53-1.43,3.72-3.29,3.72-5.24V252c0,1.86-1.27,3.8-3.72,5.24-5,2.88-12.94,2.88-17.92,0C377.94,255.78,376.75,253.93,376.75,252.07Z"/></clipPath><linearGradient id="Dégradé_sans_nom_7" x1="371.34" y1="234.3" x2="398.05" y2="234.3" gradientUnits="userSpaceOnUse"><stop offset="0" stop-color="#dad7d2"/><stop offset="0.27" stop-color="#afadaa"/><stop offset="0.89" stop-color="#505050"/></linearGradient><linearGradient id="Dégradé_sans_nom_198" x1="394.25" y1="234.02" x2="407.44" y2="234.02" gradientUnits="userSpaceOnUse"><stop offset="1" stop-color="#505050"/><stop offset="1" stop-color="#dad7d2"/></linearGradient><clipPath id="clip-path-7" transform="translate(-129.33 -24.17)"><path id="SVGID-7" data-name="SVGID" class="cls-1" d="M369.74,205.83v3.47a12,12,0,0,0,5.74,9.46c7.61,4.48,20.12,4.48,27.81,0,3.89-2.2,5.84-5.15,5.84-8.11v-5c0,3-1.95,5.83-5.84,8.12-7.69,4.48-20.11,4.48-27.81,0C371.68,211.58,369.74,208.7,369.74,205.83Z"/></clipPath><clipPath id="clip-path-8" transform="translate(-129.33 -24.17)"><path id="SVGID-8" data-name="SVGID" class="cls-1" d="M372.27,202.45v3c0,2.54,1.69,5,5,6.93,6.68,3.89,17.5,3.89,24.17,0,3.38-1.94,5.08-4.48,5.08-7v-3c0,2.54-1.7,5.08-5.08,7-6.67,3.89-17.49,3.89-24.17,0C374,207.44,372.27,204.9,372.27,202.45Z"/></clipPath></defs><path class="cls-2" d="M381,297.2c0-.08-.08-.08-.08-.17s-.17.09-.34.09a.64.64,0,0,0-.34.17l-.76.25-.76.25a.73.73,0,0,0-.34.17,1.64,1.64,0,0,0-.42.17h0c-.08,0-3.3,1.1-3.72,1.27h0l-41.16,23.84-.6.84.6,1.52,1.18.68,41.16-23.92h0c1.1-1,2.29-2.28,3.47-3.21C379.63,298.39,380.31,297.79,381,297.2Z" transform="translate(-129.33 -24.17)"/><g class="cls-3"><path class="cls-4" d="M380.22,296.36c-.08,0-.25.08-.34.08a.66.66,0,0,0-.33.17l-.77.25-.76.26a.59.59,0,0,0-.33.17,1.28,1.28,0,0,0-.43.17l.85.93c.67-.6,1.44-1.19,2.11-1.78Z" transform="translate(-129.33 -24.17)"/><path class="cls-5" d="M377.35,297.37c-.09,0-3.64,1.18-3.81,1.27.09.17.17.17.34.25a2.14,2.14,0,0,1,1.1,1.69c0,.26-.17.85-.34.93,1.1-1,2.37-2.28,3.47-3.29C378.28,298,377.6,297.29,377.35,297.37Z" transform="translate(-129.33 -24.17)"/><path class="cls-4" d="M375,300.58c0,.68-.42.93-1,.6a2.19,2.19,0,0,1-1-1.78c0-.68.43-.93,1-.59A2.29,2.29,0,0,1,375,300.58Z" transform="translate(-129.33 -24.17)"/></g><g class="cls-3"><polygon class="cls-4" points="204.74 300.51 245.99 276.59 245.39 277.43 204.23 301.35 204.74 300.51"/><polygon class="cls-4" points="204.23 298.99 245.39 275.15 245.99 276.59 204.74 300.51 204.23 298.99"/><polygon class="cls-4" points="203.05 298.39 244.21 274.47 245.39 275.15 204.23 298.99 203.05 298.39"/><polygon class="cls-4" points="204.23 298.99 204.74 300.51 204.23 301.35 203.05 300.68 202.45 299.16 203.05 298.39 204.23 298.99"/></g><polygon class="cls-2" points="82.68 155.21 106.51 169.07 130.52 155.21 106.68 141.35 82.68 155.21"/><g class="cls-3"><polygon class="cls-6" points="83.78 147.85 83.78 154.53 106.51 167.72 106.51 161.04 83.78 147.85"/><polygon class="cls-7" points="106.51 161.04 106.51 167.72 129.42 154.53 129.42 147.85 106.51 161.04"/><polygon class="cls-8" points="83.78 147.85 106.51 161.04 129.42 147.85 106.68 134.58 83.78 147.85"/><polygon class="cls-7" points="84.96 147.18 106.51 160.19 129.42 147.85 106.68 134.58 84.96 147.18"/><path class="cls-8" d="M214.12,168.64c3.55,5.07,15.47,10.56,20.46,12.68,5.32-.26,15.21-4,24.17-9.3L236,158.83C227.9,163.06,220,167.29,214.12,168.64Z" transform="translate(-129.33 -24.17)"/></g><polygon class="cls-7" points="106.09 139.82 107.27 139.06 122.15 147.6 120.88 148.36 106.09 139.82"/><polygon class="cls-7" points="101.44 142.7 102.63 141.94 117.42 150.47 116.23 151.24 101.44 142.7"/><polygon class="cls-7" points="97.98 145.15 108.88 151.4 107.7 152.16 96.71 145.91 97.98 145.15"/><polygon class="cls-2" points="172.87 208.97 196.7 222.83 220.71 208.97 196.87 195.1 172.87 208.97"/><g class="cls-3"><polygon class="cls-9" points="173.97 201.61 173.97 208.29 196.7 221.48 196.7 214.8 173.97 201.61"/><polygon class="cls-10" points="196.7 214.8 196.7 221.48 219.61 208.29 219.61 201.61 196.7 214.8"/><polygon class="cls-11" points="173.97 201.61 196.7 214.8 219.61 201.61 196.87 188.34 173.97 201.61"/></g><polygon class="cls-10" points="196.28 193.58 197.55 192.82 212.34 201.36 211.07 202.12 196.28 193.58"/><polygon class="cls-10" points="191.63 196.46 192.81 195.7 207.61 204.23 206.42 204.99 191.63 196.46"/><polygon class="cls-10" points="188.17 198.91 199.07 205.25 197.89 205.92 186.98 199.67 188.17 198.91"/><path class="cls-12" d="M376.41,280.73c2,1.14,2,3.06,0,4.21l-54.78,31.82a8.09,8.09,0,0,1-7.27,0l-45.79-26.21,62.05-36Z" transform="translate(-129.33 -24.17)"/><path class="cls-13" d="M377.94,282.83v.32c0,.06,0,.06-.06.13s0,.12-.07.12-.06.07-.06.13-.06.13-.06.19-.07.07-.07.13-.06.13-.13.19-.06.13-.12.19l-.07.07-.19.19c-.06.06-.13.06-.13.13l-.12.12c-.07.07-.13.07-.19.13s-.13.07-.2.13l-54.78,31.82a3.42,3.42,0,0,1-.51.26.26.26,0,0,0-.13.06.91.91,0,0,1-.38.13.26.26,0,0,0-.13.06c-.06,0-.19.07-.25.07s-.13.06-.19.06-.19.06-.26.06a.23.23,0,0,0-.19.07,1.85,1.85,0,0,1-.57.06h-2a.48.48,0,0,1-.25-.06c-.07,0-.2,0-.26-.07a.24.24,0,0,1-.19-.06c-.13,0-.19-.06-.32-.06a.22.22,0,0,1-.19-.07l-.57-.19c-.07-.06-.2-.06-.26-.13s-.06-.06-.13-.06l-.38-.19-45.79-26.21v1.21L314.55,318l.38.19c.07,0,.07.07.13.07s.13.06.26.12h0l.57.19H316c.07,0,.07,0,.13.07s.19.06.32.06h.19c.06,0,.19.07.26.07h2.23c.19,0,.38-.07.57-.07h0a.23.23,0,0,0,.19-.06c.07,0,.19-.07.26-.07s.13-.06.19-.06.19-.06.25-.06h.07a.06.06,0,0,0,.06-.07,1,1,0,0,1,.39-.12.2.2,0,0,0,.12-.07,2,2,0,0,0,.51-.25l54.78-31.83s.07,0,.07-.06.06-.06.13-.06.12-.07.19-.13.12-.07.12-.13.13-.06.13-.13h0l.19-.19.07-.06.12-.13a.06.06,0,0,1,.07-.06c.06-.07.06-.13.13-.19l.06-.07v-.06c0-.07.06-.13.06-.19l.07-.07v-.06c0-.06,0-.13.06-.13v-.13h0v-.38h0Z" transform="translate(-129.33 -24.17)"/><g class="cls-3"><path class="cls-14" d="M376.41,279.45l-58.35,33.86L271.5,286.53l61-35.33L376.41,277A1.44,1.44,0,0,1,376.41,279.45Z" transform="translate(-129.33 -24.17)"/><polygon class="cls-15" points="247.78 254.01 247.78 257.07 188.66 292.34 188.72 289.15 247.78 254.01"/><polygon class="cls-16" points="188.72 289.15 188.66 292.34 141.91 265.23 141.91 262.17 188.72 289.15"/></g><path class="cls-2" d="M200.68,154.86c4.74,2.79,4.82,7.19.09,10s-12.43,2.79-17.24,0-4.82-7.18-.09-10S196,152.07,200.68,154.86Z" transform="translate(-129.33 -24.17)"/><path class="cls-17" d="M181.67,158.16,176.93,128c.34,2,1.69,3.8,4.14,5.33l3.47,28.57A6.07,6.07,0,0,1,181.67,158.16Z" transform="translate(-129.33 -24.17)"/><path class="cls-4" d="M207.28,127.81l-4.57,30.26A5.76,5.76,0,0,1,199.5,162c-4.23,2.37-10.9,2.28-15-.17l-3.47-28.57c5.84,3.47,15.47,3.64,21.56.26C205.42,131.87,207,129.93,207.28,127.81Z" transform="translate(-129.33 -24.17)"/><ellipse class="cls-18" cx="192.15" cy="127.05" rx="15.21" ry="8.79" transform="translate(-129.69 -23.62) rotate(-0.16)"/><path class="cls-4" d="M182.26,132.55c5.24,3.12,13.86,3.21,19.27.16s5.58-8,.42-11.15-13.86-3.21-19.27-.17-5.58,8-.42,11.16Z" transform="translate(-129.33 -24.17)"/><g class="cls-19"><path class="cls-17" d="M195.36,119.44a19.48,19.48,0,0,0-3-.25l-4.06,15.47c1,.17,2,.25,3,.34Z" transform="translate(-129.33 -24.17)"/><path class="cls-17" d="M188,135.59l-.85,3a19.19,19.19,0,0,0,1.1,1.61,9.25,9.25,0,0,0,1.27,1.35l1.52-5.75A16.92,16.92,0,0,1,188,135.59Z" transform="translate(-129.33 -24.17)"/><g class="cls-3"><path class="cls-4" d="M199.75,98.82v3l-1.09-.51c.33-.76.76-1.6,1.09-2.37C199.67,98.74,199.75,98.82,199.75,98.82Z" transform="translate(-129.33 -24.17)"/><path class="cls-5" d="M199.67,101.69c0,.09-.08,3.64-.17,3.81-.17,0-.17-.09-.34-.26a2.17,2.17,0,0,0-1.86-.59c-.25.09-.76.42-.76.51.59-1.27,1.44-2.79,2-4.06A1.62,1.62,0,0,1,199.67,101.69Z" transform="translate(-129.33 -24.17)"/><path class="cls-4" d="M197.3,104.65c-.59.17-.76.68-.25,1.1a2.13,2.13,0,0,0,1.86.51c.59-.17.76-.68.25-1.1A2.13,2.13,0,0,0,197.3,104.65Z" transform="translate(-129.33 -24.17)"/></g><g class="cls-3"><polygon class="cls-20" points="54.45 134.33 67.72 80.32 67.12 81.08 53.85 135.09 54.45 134.33"/><polygon class="cls-8" points="55.97 134.41 69.24 80.4 67.72 80.32 54.45 134.33 55.97 134.41"/><polygon class="cls-8" points="56.9 135.34 70.17 81.33 69.24 80.4 55.97 134.41 56.9 135.34"/><polygon class="cls-4" points="55.97 134.41 54.45 134.33 53.85 135.09 54.78 135.94 56.3 136.1 56.9 135.34 55.97 134.41"/></g></g><g class="cls-19"><path class="cls-17" d="M202.71,133.48a17.47,17.47,0,0,1-2.87,1.26l-2.62,18.43.25.93,1.44.42,1.18-.5,3-20.8A1.25,1.25,0,0,0,202.71,133.48Z" transform="translate(-129.33 -24.17)"/><path class="cls-17" d="M203.22,131.7l1.1-8.11a11,11,0,0,0-2.37-2c-.08-.08-.25-.08-.34-.17l-1.69,12.09c.6-.25,1.1-.51,1.61-.76A14.59,14.59,0,0,0,203.22,131.7Z" transform="translate(-129.33 -24.17)"/><g class="cls-3"><path class="cls-4" d="M206.18,91.89c0,.08-.09.17-.09.25s-.08.26-.08.34-.17.51-.25.68-.17.5-.26.67-.08.26-.08.34a.68.68,0,0,1-.17.34l1.18-.09c0-.84-.08-1.77-.08-2.62C206.26,91.89,206.26,91.89,206.18,91.89Z" transform="translate(-129.33 -24.17)"/><path class="cls-5" d="M205.25,94.68c0,.08-1.27,3.46-1.27,3.63a.94.94,0,0,0,.42-.08,2,2,0,0,1,1.95.17,1.29,1.29,0,0,1,.5.84c-.08-1.43-.33-3.12-.42-4.56C206.26,94.34,205.33,94.42,205.25,94.68Z" transform="translate(-129.33 -24.17)"/><path class="cls-4" d="M206.35,98.31c.5.43.42.85-.17,1.1a2.24,2.24,0,0,1-2-.25c-.5-.42-.42-.85.17-1.1A2,2,0,0,1,206.35,98.31Z" transform="translate(-129.33 -24.17)"/></g><g class="cls-3"><polygon class="cls-21" points="69.49 129.09 77.27 73.98 77.52 74.91 69.75 130.02 69.49 129.09"/><polygon class="cls-22" points="68.05 128.67 75.83 73.56 77.27 73.98 69.49 129.09 68.05 128.67"/><polygon class="cls-22" points="66.87 129.09 74.65 74.06 75.83 73.56 68.05 128.67 66.87 129.09"/><polygon class="cls-4" points="68.05 128.67 69.49 129.09 69.75 130.02 68.56 130.44 67.12 130.02 66.87 129.09 68.05 128.67"/></g></g><g class="cls-19"><path class="cls-17" d="M201.87,143.11a16,16,0,0,1-3.05.93l-4.73,18,.17.93,1.35.59,1.27-.34,5.33-20.29C202.12,143,202,143,201.87,143.11Z" transform="translate(-129.33 -24.17)"/><g class="cls-3"><path class="cls-4" d="M210.24,102.2c-.09.09-.09.17-.17.25s-.09.26-.17.34l-.34.68-.34.67c-.08.09-.08.26-.17.34s-.08.26-.17.34l1.19.09c.08-.85.08-1.78.17-2.62C210.32,102.29,210.32,102.29,210.24,102.2Z" transform="translate(-129.33 -24.17)"/><path class="cls-5" d="M209,104.91c-.09.08-1.69,3.29-1.69,3.46a.94.94,0,0,0,.42-.08,1.86,1.86,0,0,1,1.86.42,2,2,0,0,1,.42.84c.09-1.43,0-3.12.17-4.56C210.07,104.65,209.14,104.65,209,104.91Z" transform="translate(-129.33 -24.17)"/><path class="cls-4" d="M209.64,108.62c.43.43.34.93-.25,1.1a2.13,2.13,0,0,1-1.86-.5c-.42-.43-.34-.93.25-1.1A2.12,2.12,0,0,1,209.64,108.62Z" transform="translate(-129.33 -24.17)"/></g><g class="cls-3"><polygon class="cls-20" points="66.45 138.13 80.56 84.38 80.73 85.31 66.62 139.06 66.45 138.13"/><polygon class="cls-8" points="65.1 137.54 79.21 83.78 80.56 84.38 66.45 138.13 65.1 137.54"/><polygon class="cls-8" points="63.83 137.88 77.94 84.12 79.21 83.78 65.1 137.54 63.83 137.88"/><polygon class="cls-4" points="65.1 137.54 66.45 138.13 66.62 139.06 65.35 139.4 64 138.81 63.83 137.88 65.1 137.54"/></g></g><g class="cls-19"><path class="cls-17" d="M181.67,133.48a17.47,17.47,0,0,0,2.87,1.26l2.62,18.43-.25.93-1.44.42-1.18-.5-3-20.8A1.11,1.11,0,0,0,181.67,133.48Z" transform="translate(-129.33 -24.17)"/><path class="cls-17" d="M181.07,131.7,180,123.59a11,11,0,0,1,2.36-2c.09-.08.26-.08.34-.17l1.69,12.09c-.59-.25-1.1-.51-1.61-.76A15.51,15.51,0,0,1,181.07,131.7Z" transform="translate(-129.33 -24.17)"/><g class="cls-3"><path class="cls-4" d="M179.47,98.31c0,.09.08.17.08.26s.09.25.09.33.17.51.25.68.17.51.25.68.09.25.09.33a.58.58,0,0,0,.17.34l-1.19-.08c0-.85.09-1.78.09-2.62C179.3,98.31,179.38,98.31,179.47,98.31Z" transform="translate(-129.33 -24.17)"/><path class="cls-5" d="M180.4,101c0,.08,1.27,3.46,1.27,3.63a1,1,0,0,1-.43-.08,2,2,0,0,0-1.94.17,1.31,1.31,0,0,0-.51.84c.09-1.44.34-3.13.42-4.56C179.3,100.68,180.23,100.85,180.4,101Z" transform="translate(-129.33 -24.17)"/><path class="cls-4" d="M179.3,104.65c-.51.42-.42.85.17,1.1a2.25,2.25,0,0,0,1.94-.25c.51-.43.43-.85-.17-1.1A2.57,2.57,0,0,0,179.3,104.65Z" transform="translate(-129.33 -24.17)"/></g><g class="cls-3"><polygon class="cls-20" points="57.4 135.51 49.71 80.4 49.37 81.33 57.15 136.36 57.4 135.51"/><polygon class="cls-8" points="58.92 135.01 51.15 79.98 49.71 80.4 57.4 135.51 58.92 135.01"/><polygon class="cls-8" points="60.11 135.51 52.33 80.4 51.15 79.98 58.92 135.01 60.11 135.51"/><polygon class="cls-4" points="58.92 135.01 57.4 135.51 57.15 136.36 58.33 136.87 59.77 136.44 60.11 135.51 58.92 135.01"/></g></g><path class="cls-2" d="M231,261.55c1.52.85,1.52,2.29,0,3.13L194.38,286a6.06,6.06,0,0,1-5.41,0l-58.49-33.72c-1.53-.85-1.53-2.29,0-3.13l36.59-21.3a6.06,6.06,0,0,1,5.41,0Z" transform="translate(-129.33 -24.17)"/><polygon class="cls-2" points="2.83 223.95 66.73 260.8 100.46 241.28 36.56 204.34 2.83 223.95"/><path class="cls-23" d="M188.88,279.05l-52.32-30.26L167,231.12h.08l52.33,30.26-30.52,17.67Z" transform="translate(-129.33 -24.17)"/><path class="cls-18" d="M143.41,247.35l-.17-.25-2.2,1.27a.48.48,0,0,0,0,.76l2.37,1.35.17-.25-2-1.1a.48.48,0,0,1,0-.76Z" transform="translate(-129.33 -24.17)"/><path class="cls-18" d="M189.31,276.26a.65.65,0,0,1-.77,0l-1.35-.76-.17.25,1.52.85a.65.65,0,0,0,.77,0l1.35-.85-.17-.25Z" transform="translate(-129.33 -24.17)"/><path class="cls-18" d="M213.31,260l-.17.26,1.52.84a.25.25,0,0,1,0,.34l-.93.51.17.25,1.35-.76a.25.25,0,0,0,0-.34Z" transform="translate(-129.33 -24.17)"/><path class="cls-18" d="M165,234.51l.17.25,1.52-.85a.63.63,0,0,1,.76,0l1.52.85.17-.25-1.69-.93a.63.63,0,0,0-.76,0Z" transform="translate(-129.33 -24.17)"/><path class="cls-24" d="M232.08,263.24h0v1h0a.08.08,0,0,1-.09.08h0l-.08.09h0l-.09.08h0l-.08.09-.09.08-.08.09-.09.08a.08.08,0,0,0-.08.08h-.09a.08.08,0,0,0-.08.09.08.08,0,0,0-.08.08l-36.6,21.3c-.09.09-.17.09-.26.17h-.08c-.09,0-.17.09-.26.09h0c-.08,0-.17.08-.25.08s-.17,0-.17.09h-.17a.31.31,0,0,0-.25.08h-2.54a.31.31,0,0,1-.25-.08h-.25c-.09,0-.17-.09-.26-.09h-.08a.28.28,0,0,1-.17-.08.09.09,0,0,1-.09-.09c-.08-.08-.16-.08-.25-.17l-58.49-33.72a2.35,2.35,0,0,1-.93-.85,1.32,1.32,0,0,1-.25-.76v3.05a1.84,1.84,0,0,0,1.09,1.6l58.5,33.73c.08.08.17.08.25.17a.08.08,0,0,1,.08.08c.09,0,.09.09.17.09h.09c.08,0,.17.08.25.08h.25a.34.34,0,0,1,.26.08h2.45a.31.31,0,0,0,.25-.08h.17c.09,0,.17,0,.17-.08h.09c.08,0,.17-.09.25-.09h0c.08,0,.17-.08.25-.08h.09c.08-.09.17-.09.25-.17l36.6-21.3h.17a.08.08,0,0,0,.08-.09h.09a.08.08,0,0,0,.08-.08l.09-.09.08-.08.09-.09.08-.08h0l.09-.09h0l.08-.08h0a.08.08,0,0,1,.09-.08h0v-.09h0v-.25h0v-.26h0v-.25h0v-3.3Z" transform="translate(-129.33 -24.17)"/><path class="cls-24" d="M224.47,266.12l-27.9,16c-.08,0-.08.09-.16.09h-1.27c-.09,0-.09-.09-.17-.09l-2.54-1.43h0l-.08-.09s-.09,0-.09-.08h0l-.08-.09h0v-.08h0v-.17h0v-.76h0a.08.08,0,0,0,.08.08h0l.09.09.08.08a.09.09,0,0,1,.09.09l2.53,1.43c.09,0,.09.09.17.09h.93c.09,0,.09,0,.17-.09h0a.28.28,0,0,0,.17-.08l27.89-16c.17-.08.34-.25.34-.33v.76C224.81,265.78,224.72,266,224.47,266.12Z" transform="translate(-129.33 -24.17)"/><path class="cls-25" d="M192.35,278.63a.52.52,0,0,0,0,1l2.53,1.44a2.21,2.21,0,0,0,1.78,0l14.11-8-4.22-2.54Z" transform="translate(-129.33 -24.17)"/><polygon class="cls-24" points="77.97 245.93 77.13 246.43 81.36 248.88 82.29 248.38 77.97 245.93"/><path class="cls-25" d="M224.47,265.19a.53.53,0,0,0,0-1l-2.54-1.43a2.11,2.11,0,0,0-1.77,0l-12.85,7.35,4.23,2.54Z" transform="translate(-129.33 -24.17)"/><path class="cls-26" d="M133.87,272.26c-1.11-.34-1.79.25-1.62,1.45a4.17,4.17,0,0,0,2.48,2.72c1.11.34,1.79-.26,1.62-1.45A4.17,4.17,0,0,0,133.87,272.26Z" transform="translate(-129.33 -24.17)"/><path class="cls-26" d="M160.28,251.82h0v-.08h0v-.09h0v-.08h0v-.09h0v-.08h0a.09.09,0,0,0-.09-.09h0a.08.08,0,0,0-.08-.08h0v-.09h0a.08.08,0,0,0-.09-.08h0l-.08-.09h0v-.09h0l-.09-.08h0l-.17-.17h0c-.08,0-.08-.09-.17-.09h0l-.08-.08h0a.09.09,0,0,1-.09-.09h0l-.08-.08h-.86l0,0h0s0,0-.07,0h-.09a.08.08,0,0,0-.08.08H158s-.17.09-.19.06l-25.29,22.69.08-.09h.09a.08.08,0,0,0,.08-.08h1.8a.08.08,0,0,1,.08.08h0l.09.09h0a.08.08,0,0,1,.08.08l.09.09h0c.08,0,.08.09.17.09h0l.17.17h0l.09.08v.17s0,.09.08.09h0l.09.08h0s0,.09.08.09h0a.08.08,0,0,0,.09.08h0s0,.09.08.09h0a.08.08,0,0,0,.09.08h0v.09h0v.08h0v.09h0v.08h0v.09h0v.08h0V275h0v.17h0v.08h0v.09h0v.34h0v.08h0v.09h0v.08h0V276h0a.08.08,0,0,1-.09.08h0s0,.09-.08.09h0l-.09.08L161,253.52l.09-.08h0l.08-.09h0l.09-.22h0v0h0V253h0v-.08h0v-.09h0v-.08h0v-.09h0v-.08c-.94-.68-.94-.77-.94-.77Z" transform="translate(-129.33 -24.17)"/><path class="cls-4" d="M151.69,256a.53.53,0,0,0,.17.93,1.63,1.63,0,0,0,1.52-.33l4.4-3.89a.53.53,0,0,0-.17-.93,1.61,1.61,0,0,0-1.52.34Z" transform="translate(-129.33 -24.17)"/><path class="cls-4" d="M135.72,275.75a2,2,0,0,0,.08-.76,3.17,3.17,0,0,0-1.94-2.19,2.23,2.23,0,0,0-.76-.09,2.1,2.1,0,0,0-1,2.79,2.21,2.21,0,0,0,1.78,1.18A2.13,2.13,0,0,0,135.72,275.75Z" transform="translate(-129.33 -24.17)"/><path class="cls-17" d="M163.52,248.47h0v-.1h0c-2.13.84-4.16,1.57-6.28,2.41h1.84s.1,0,.1.09h0c.09,0,.09.09.18.09h0c.09.09.19.09.19.19h0c.09,0,.09.09.18.09h0l.18.18h0l.19.19h0c0,.09.09.09.09.18h0l.19.19h0c0,.09.09.09.09.18h0a.09.09,0,0,0,.09.09h0s0,.1.09.1h0v.09h0v.09h0v.19h0v.09h0v.09h0v.65h0v.09h0v.09h0v.09h0s0-.12,0,0l.34-.3.08-.09h0c1-2,1.59-3.09,2.6-5.12h0c-.18.28-.18.28-.18.19Z" transform="translate(-129.33 -24.17)"/><path class="cls-26" d="M163.55,248.24l.21.16-.55.9h0v-.09h0V249h0v-.09h0v-.1h0v-.09h0l-.11-.08h-.18l-.09,0h-.18Z" transform="translate(-129.33 -24.17)"/><path class="cls-2" d="M375.57,232.12l2.37-1.36a1.75,1.75,0,0,0,0-3L227.65,139.56a1.68,1.68,0,0,0-1.78,0l-2.36,1.35a1.75,1.75,0,0,0,0,3.05l150.28,88.16A2.2,2.2,0,0,0,375.57,232.12Z" transform="translate(-129.33 -24.17)"/><path class="cls-2" d="M315.22,198.31l-16,9.29a2.64,2.64,0,0,1-2.53,0l-29.42-16.9a2.47,2.47,0,0,1,0-4.31l16-9.3a2.7,2.7,0,0,1,2.53,0L315.22,194A2.53,2.53,0,0,1,315.22,198.31Z" transform="translate(-129.33 -24.17)"/><g class="cls-3"><path class="cls-24" d="M315.72,178.78c.09,0,.09.09.17.09L285.3,161.12h-.09a.08.08,0,0,1-.08-.09c-.17-.08-.26-.17-.43-.17h0c-.08,0-.17-.08-.25-.08s-.17-.09-.25-.09-.17-.08-.34-.17c0,0-.09,0-.09-.08h0l30.6,17.83h.09c.08.09.17.09.33.17h0c.09,0,.17.09.26.09s.17.08.34.08S315.64,178.7,315.72,178.78Z" transform="translate(-129.33 -24.17)"/><polygon class="cls-24" points="169.15 181.24 138.46 163.49 138.46 161.29 169.15 179.13 169.15 181.24"/><path class="cls-24" d="M316.15,186.05c0-3.38-.68-4.39-1.52-4.9L284,163.31c.84.51,1.52,1.52,1.52,4.91,0,1.77,0,7-9.21,12.34l-8.46,4.9,30.6,17.83,8.45-4.9C316.15,193.07,316.15,187.74,316.15,186.05Z" transform="translate(-129.33 -24.17)"/><polygon class="cls-24" points="181.74 144.13 151.14 126.39 153 125.37 183.69 143.21 181.74 144.13"/><path class="cls-24" d="M312.43,180c-.26-.33-1.1-1.18-1.27-7v-4.57l-30.6-17.83c0,1-.08,2.7,0,4.56.17,5.84,1,6.68,1.27,7a22.58,22.58,0,0,1,.68.51l30.59,17.83A2.43,2.43,0,0,1,312.43,180Z" transform="translate(-129.33 -24.17)"/><path class="cls-24" d="M311.08,168.3l1.86-.93c0,.93-.09,2.71,0,4.48.16,4.65.76,5.75.92,6a2.34,2.34,0,0,0,1.1.59c1.36.51,3,1.19,3,6.51a15,15,0,0,1-3,8.79,25.68,25.68,0,0,1-8.11,6.85l-8.45,4.9v-2.11l8.45-4.9c9.21-5.33,9.21-10.65,9.21-12.34,0-4.32-1.1-4.74-2.28-5.25a3.54,3.54,0,0,1-1.44-.84c-.25-.34-1.1-1.18-1.26-7Z" transform="translate(-129.33 -24.17)"/></g><g class="cls-3"><polygon class="cls-27" points="98.14 10.16 102.46 7.63 102.29 89.45 97.89 91.98 98.14 10.16"/><polygon class="cls-28" points="97.89 91.98 102.29 89.45 243.53 171.01 239.13 173.55 97.89 91.98"/><polygon class="cls-29" points="98.14 10.16 102.46 7.63 243.78 89.19 239.39 91.73 98.14 10.16"/><polygon class="cls-30" points="239.39 91.73 243.78 89.19 243.53 171.01 239.13 173.55 239.39 91.73"/><polygon class="cls-31" points="239.39 91.73 239.13 173.55 97.89 91.98 98.14 10.16 239.39 91.73"/><path class="cls-2" d="M366.61,107.1l-137-79.2c-4.31-2.45-7.86-.93-8.62,3.38l-.34,87.23c0,5.5,3.89,12.26,8.62,15l137.11,79.2c4.81,2.79,8.7.5,8.7-5l.26-85.63C375.32,116.57,371.43,109.81,366.61,107.1Zm1.86,90.62L227.23,116.15l.25-81.91,141.24,81.57Z" transform="translate(-129.33 -24.17)"/><path class="cls-26" d="M298,68.56a5.39,5.39,0,0,1,2.37,4.06c0,1.52-1.1,2.11-2.37,1.35a5.4,5.4,0,0,1-2.36-4.06C295.61,68.39,296.71,67.8,298,68.56Z" transform="translate(-129.33 -24.17)"/><path class="cls-4" d="M298,70.42a1.55,1.55,0,0,1,.76,1.27.47.47,0,0,1-.76.42,1.57,1.57,0,0,1-.76-1.27C297.21,70.33,297.55,70.17,298,70.42Z" transform="translate(-129.33 -24.17)"/><path class="cls-24" d="M371,104.57,233.9,25.37c-2.45-1.44-4.56-1.52-6.17-.59l-4.39,2.53c1.6-.93,3.8-.76,6.17.59L366.61,107c4.82,2.79,8.71,9.47,8.62,15L375,207.6c0,2.71-1,4.65-2.54,5.58l4.4-2.53c1.52-.93,2.53-2.88,2.53-5.58l.26-85.63C379.71,114,375.82,107.27,371,104.57Z" transform="translate(-129.33 -24.17)"/></g><g class="cls-32"><rect class="cls-33" x="197.99" y="40.41" width="127.72" height="39.05" transform="translate(-135.94 26.35) rotate(-10.88)"/><rect class="cls-33" x="205.83" y="108.37" width="165.92" height="16.4" transform="translate(-146.15 32.46) rotate(-10.88)"/><rect class="cls-33" x="268.81" y="142.59" width="133.13" height="10.57" transform="matrix(0.98, -0.19, 0.19, 0.98, -151.22, 41.81)"/></g><rect class="cls-26" x="27.23" y="182.26" width="4.99" height="2.37"/><rect class="cls-26" x="181.32" y="226.13" width="3.97" height="3.63"/><path class="cls-24" d="M313.36,251c1.69,1,1.69,4.31,0,5.32l-36.52,19.44a6.6,6.6,0,0,1-6.17,0L157.83,210.56c-1.69-1-1.69-2.53,0-3.55l36.52-21.21a6.6,6.6,0,0,1,6.17,0Z" transform="translate(-129.33 -24.17)"/><path class="cls-2" d="M313.36,248.52c1.69,1,1.69,2.53,0,3.55l-36.52,21.21a6.6,6.6,0,0,1-6.17,0L157.83,208.11c-1.69-1-1.69-2.53,0-3.55l36.52-21.21a6.6,6.6,0,0,1,6.17,0Z" transform="translate(-129.33 -24.17)"/><g class="cls-3"><path class="cls-15" d="M204.66,190.36l-3.72,2.2a1.82,1.82,0,0,1-1.86,0l-3.72-2.2c-.25-.17-.42-.34-.42-.51V191a.62.62,0,0,0,.42.51l3.72,2.2a1.82,1.82,0,0,0,1.86,0l3.72-2.2c.25-.17.42-.34.42-.51v-1.1A1,1,0,0,1,204.66,190.36Z" transform="translate(-129.33 -24.17)"/><path class="cls-14" d="M204.66,189.26c.5.34.5.76,0,1.1l-3.72,2.2a1.82,1.82,0,0,1-1.86,0l-3.72-2.2c-.51-.34-.51-.76,0-1.1l3.72-2.19a1.82,1.82,0,0,1,1.86,0Z" transform="translate(-129.33 -24.17)"/></g><g class="cls-3"><path class="cls-15" d="M211.76,194.42l-3.72,2.2a1.87,1.87,0,0,1-1.86,0l-3.72-2.2c-.25-.17-.42-.34-.42-.51V195a.64.64,0,0,0,.42.51l3.72,2.2a1.87,1.87,0,0,0,1.86,0l3.72-2.2c.25-.17.42-.34.42-.51v-1.1C212.18,194.08,212,194.25,211.76,194.42Z" transform="translate(-129.33 -24.17)"/><path class="cls-14" d="M211.76,193.32c.5.34.5.76,0,1.1l-3.72,2.2a1.87,1.87,0,0,1-1.86,0l-3.72-2.2c-.51-.34-.51-.76,0-1.1l3.72-2.2a1.82,1.82,0,0,1,1.86,0Z" transform="translate(-129.33 -24.17)"/></g><g class="cls-3"><path class="cls-15" d="M218.86,198.48l-3.72,2.19a1.82,1.82,0,0,1-1.86,0l-3.72-2.19c-.25-.17-.42-.34-.42-.51v1.1a.61.61,0,0,0,.42.5l3.72,2.2a1.82,1.82,0,0,0,1.86,0l3.72-2.2c.25-.16.42-.33.42-.5V198A.83.83,0,0,1,218.86,198.48Z" transform="translate(-129.33 -24.17)"/><path class="cls-14" d="M218.86,197.46c.5.34.5.76,0,1.1l-3.72,2.2a1.82,1.82,0,0,1-1.86,0l-3.72-2.2c-.51-.34-.51-.76,0-1.1l3.72-2.2a1.87,1.87,0,0,1,1.86,0Z" transform="translate(-129.33 -24.17)"/></g><g class="cls-3"><path class="cls-15" d="M226,202.62l-3.72,2.2a1.87,1.87,0,0,1-1.86,0l-3.72-2.2c-.25-.17-.42-.34-.42-.51v1.1a.64.64,0,0,0,.42.51l3.72,2.19a1.82,1.82,0,0,0,1.86,0l3.72-2.19c.25-.17.42-.34.42-.51v-1.1A1.12,1.12,0,0,1,226,202.62Z" transform="translate(-129.33 -24.17)"/><path class="cls-14" d="M226,201.52c.5.34.5.76,0,1.1l-3.72,2.2a1.87,1.87,0,0,1-1.86,0l-3.72-2.2c-.51-.34-.51-.76,0-1.1l3.72-2.2a1.82,1.82,0,0,1,1.86,0Z" transform="translate(-129.33 -24.17)"/></g><g class="cls-3"><path class="cls-15" d="M233.06,206.68l-3.72,2.19a1.82,1.82,0,0,1-1.86,0l-3.72-2.19c-.25-.17-.42-.34-.42-.51v1.1a.61.61,0,0,0,.42.5l3.72,2.2a1.82,1.82,0,0,0,1.86,0l3.72-2.2c.25-.17.42-.33.42-.5v-1.1A.83.83,0,0,1,233.06,206.68Z" transform="translate(-129.33 -24.17)"/><path class="cls-14" d="M233.06,205.58c.51.33.51.76,0,1.1l-3.72,2.19a1.82,1.82,0,0,1-1.86,0l-3.72-2.19c-.51-.34-.51-.77,0-1.1l3.72-2.2a1.82,1.82,0,0,1,1.86,0Z" transform="translate(-129.33 -24.17)"/></g><g class="cls-3"><path class="cls-15" d="M240.16,210.82,236.44,213a1.82,1.82,0,0,1-1.86,0l-3.72-2.19c-.25-.17-.42-.34-.42-.51v1.1a.64.64,0,0,0,.42.51l3.72,2.19a1.82,1.82,0,0,0,1.86,0l3.72-2.19c.25-.17.42-.34.42-.51v-1.1A1.12,1.12,0,0,1,240.16,210.82Z" transform="translate(-129.33 -24.17)"/><path class="cls-14" d="M240.16,209.72c.51.34.51.76,0,1.1L236.44,213a1.82,1.82,0,0,1-1.86,0l-3.72-2.19c-.51-.34-.51-.76,0-1.1l3.72-2.2a1.82,1.82,0,0,1,1.86,0Z" transform="translate(-129.33 -24.17)"/></g><g class="cls-3"><path class="cls-15" d="M247.26,214.87l-3.72,2.2a1.82,1.82,0,0,1-1.86,0l-3.72-2.2c-.25-.16-.42-.33-.42-.5v1.1a.62.62,0,0,0,.42.5l3.72,2.2a1.82,1.82,0,0,0,1.86,0l3.72-2.2c.25-.17.42-.34.42-.5v-1.1A1.05,1.05,0,0,1,247.26,214.87Z" transform="translate(-129.33 -24.17)"/><path class="cls-14" d="M247.17,213.78c.51.33.51.76,0,1.09l-3.72,2.2a1.81,1.81,0,0,1-1.85,0l-3.72-2.2c-.51-.33-.51-.76,0-1.09l3.72-2.2a1.81,1.81,0,0,1,1.85,0Z" transform="translate(-129.33 -24.17)"/></g><g class="cls-3"><path class="cls-15" d="M254.27,219l-3.72,2.19a1.81,1.81,0,0,1-1.85,0L245,219c-.26-.17-.43-.34-.43-.51v1.1a.61.61,0,0,0,.43.5l3.72,2.2a1.81,1.81,0,0,0,1.85,0l3.72-2.2c.26-.16.43-.33.43-.5v-1.1C254.7,218.68,254.53,218.85,254.27,219Z" transform="translate(-129.33 -24.17)"/><path class="cls-14" d="M254.27,217.92c.51.34.51.76,0,1.1l-3.72,2.19a1.81,1.81,0,0,1-1.85,0L245,219c-.51-.34-.51-.76,0-1.1l3.72-2.2a1.81,1.81,0,0,1,1.85,0Z" transform="translate(-129.33 -24.17)"/></g><g class="cls-3"><path class="cls-15" d="M261.37,223.07l-3.71,2.2a1.82,1.82,0,0,1-1.86,0l-3.72-2.2c-.26-.17-.43-.33-.43-.5v1.09a.62.62,0,0,0,.43.51l3.72,2.2a1.82,1.82,0,0,0,1.86,0l3.71-2.2c.26-.17.43-.34.43-.51v-1.09C261.8,222.74,261.63,222.9,261.37,223.07Z" transform="translate(-129.33 -24.17)"/><path class="cls-14" d="M261.37,222c.51.34.51.77,0,1.1l-3.71,2.2a1.82,1.82,0,0,1-1.86,0l-3.72-2.2c-.51-.33-.51-.76,0-1.1l3.72-2.19a1.82,1.82,0,0,1,1.86,0Z" transform="translate(-129.33 -24.17)"/></g><g class="cls-3"><path class="cls-15" d="M268.47,227.13l-3.71,2.2a1.82,1.82,0,0,1-1.86,0l-3.72-2.2c-.26-.17-.43-.34-.43-.51v1.1a.63.63,0,0,0,.43.51l3.72,2.2a1.87,1.87,0,0,0,1.86,0l3.71-2.2c.26-.17.43-.34.43-.51v-1.1A.62.62,0,0,1,268.47,227.13Z" transform="translate(-129.33 -24.17)"/><path class="cls-14" d="M268.47,226.12c.51.33.51.76,0,1.09l-3.71,2.2a1.82,1.82,0,0,1-1.86,0l-3.72-2.2c-.51-.33-.51-.76,0-1.09l3.72-2.2a1.82,1.82,0,0,1,1.86,0Z" transform="translate(-129.33 -24.17)"/></g><g class="cls-3"><path class="cls-15" d="M275.57,231.27l-3.71,2.2a1.82,1.82,0,0,1-1.86,0l-3.72-2.2c-.26-.17-.43-.34-.43-.51v1.1a.62.62,0,0,0,.43.51l3.72,2.2a1.82,1.82,0,0,0,1.86,0l3.71-2.2c.26-.17.43-.34.43-.51v-1.1C276,230.93,275.83,231.1,275.57,231.27Z" transform="translate(-129.33 -24.17)"/><path class="cls-14" d="M275.57,230.17c.51.34.51.76,0,1.1l-3.71,2.2a1.82,1.82,0,0,1-1.86,0l-3.72-2.2c-.51-.34-.51-.76,0-1.1L270,228a1.82,1.82,0,0,1,1.86,0Z" transform="translate(-129.33 -24.17)"/></g><g class="cls-3"><path class="cls-15" d="M282.67,235.33l-3.71,2.2a1.82,1.82,0,0,1-1.86,0l-3.72-2.2c-.26-.17-.43-.34-.43-.51v1.1a.63.63,0,0,0,.43.51l3.72,2.2a1.87,1.87,0,0,0,1.86,0l3.71-2.2c.26-.17.43-.34.43-.51v-1.1A.63.63,0,0,1,282.67,235.33Z" transform="translate(-129.33 -24.17)"/><path class="cls-14" d="M282.67,234.32c.51.33.51.76,0,1.09l-3.71,2.2a1.82,1.82,0,0,1-1.86,0l-3.72-2.2c-.51-.33-.51-.76,0-1.09l3.72-2.2a1.82,1.82,0,0,1,1.86,0Z" transform="translate(-129.33 -24.17)"/></g><g class="cls-3"><path class="cls-15" d="M204.23,198.56l-3.71,2.2a1.82,1.82,0,0,1-1.86,0L188,194.59c-.09,0-.09-.09-.17-.09s-.17-.17-.17-.25v1.1c0,.08.08.17.17.25s.08.09.17.09l10.65,6.17a1.82,1.82,0,0,0,1.86,0l3.71-2.2c.26-.17.43-.34.43-.51v-1.1C204.66,198.22,204.49,198.39,204.23,198.56Z" transform="translate(-129.33 -24.17)"/><path class="cls-14" d="M204.23,197.46c.51.34.51.76,0,1.1l-3.71,2.2a1.82,1.82,0,0,1-1.86,0L188,194.59c-.51-.34-.51-.76,0-1.1l3.71-2.2a1.82,1.82,0,0,1,1.86,0Z" transform="translate(-129.33 -24.17)"/></g><g class="cls-3"><path class="cls-15" d="M193,200.5l-3.72,2.2a1.82,1.82,0,0,1-1.86,0l-6.67-3.89c-.26-.16-.43-.33-.43-.5v1.1a.62.62,0,0,0,.43.5l6.67,3.89a1.82,1.82,0,0,0,1.86,0l3.72-2.2c.26-.17.43-.33.43-.5V200A1.08,1.08,0,0,1,193,200.5Z" transform="translate(-129.33 -24.17)"/><path class="cls-14" d="M193,199.41c.51.33.51.76,0,1.09l-3.72,2.2a1.82,1.82,0,0,1-1.86,0l-6.67-3.89c-.51-.33-.51-.76,0-1.09l3.72-2.2a1.82,1.82,0,0,1,1.86,0Z" transform="translate(-129.33 -24.17)"/></g><g class="cls-3"><path class="cls-15" d="M183,203l-3.72,2.19a1.82,1.82,0,0,1-1.86,0L173.72,203c-.25-.17-.42-.34-.42-.51v1.1a.61.61,0,0,0,.42.5l3.72,2.2a1.82,1.82,0,0,0,1.86,0l3.72-2.2c.25-.16.42-.33.42-.5v-1.1A1.9,1.9,0,0,1,183,203Z" transform="translate(-129.33 -24.17)"/><path class="cls-14" d="M183,201.86c.51.34.51.76,0,1.1l-3.72,2.19a1.82,1.82,0,0,1-1.86,0L173.72,203c-.51-.34-.51-.76,0-1.1l3.72-2.2a1.82,1.82,0,0,1,1.86,0Z" transform="translate(-129.33 -24.17)"/></g><g class="cls-3"><path class="cls-15" d="M200.09,204.56l-3.72,2.2a1.82,1.82,0,0,1-1.86,0l-3.72-2.2c-.25-.17-.42-.34-.42-.51v1.1a.62.62,0,0,0,.42.51l3.72,2.2a1.82,1.82,0,0,0,1.86,0l3.72-2.2c.26-.17.43-.34.43-.51v-1.1C200.43,204.22,200.35,204.48,200.09,204.56Z" transform="translate(-129.33 -24.17)"/><path class="cls-14" d="M200.09,203.55c.51.34.51.76,0,1.1l-3.72,2.19a1.82,1.82,0,0,1-1.86,0l-3.72-2.19c-.5-.34-.5-.76,0-1.1l3.72-2.2a1.82,1.82,0,0,1,1.86,0Z" transform="translate(-129.33 -24.17)"/></g><g class="cls-3"><path class="cls-15" d="M190.12,207l-3.72,2.2a1.82,1.82,0,0,1-1.86,0l-3.72-2.2c-.25-.17-.42-.33-.42-.5v1.09a.62.62,0,0,0,.42.51l3.72,2.2a1.82,1.82,0,0,0,1.86,0l3.72-2.2c.25-.17.42-.34.42-.51v-1.09A1.1,1.1,0,0,1,190.12,207Z" transform="translate(-129.33 -24.17)"/><path class="cls-14" d="M190.12,205.91c.51.34.51.77,0,1.1l-3.72,2.2a1.82,1.82,0,0,1-1.86,0l-3.72-2.2c-.51-.33-.51-.76,0-1.1l3.72-2.19a1.82,1.82,0,0,1,1.86,0Z" transform="translate(-129.33 -24.17)"/></g><g class="cls-3"><path class="cls-15" d="M211.33,202.62l-3.71,2.2a1.87,1.87,0,0,1-1.86,0l-3.72-2.2c-.26-.17-.43-.34-.43-.51v1.1a.63.63,0,0,0,.43.51l3.72,2.19a1.82,1.82,0,0,0,1.86,0l3.71-2.19c.26-.17.43-.34.43-.51v-1.1C211.76,202.28,211.59,202.45,211.33,202.62Z" transform="translate(-129.33 -24.17)"/><path class="cls-14" d="M211.33,201.52c.51.34.51.76,0,1.1l-3.71,2.2a1.87,1.87,0,0,1-1.86,0l-3.72-2.2c-.51-.34-.51-.76,0-1.1l3.72-2.2a1.82,1.82,0,0,1,1.86,0Z" transform="translate(-129.33 -24.17)"/></g><g class="cls-3"><path class="cls-15" d="M207.19,208.7l-3.72,2.2a1.82,1.82,0,0,1-1.86,0l-3.71-2.2c-.26-.17-.43-.33-.43-.5v1.1a.62.62,0,0,0,.43.5l3.71,2.2a1.82,1.82,0,0,0,1.86,0l3.72-2.2c.26-.17.43-.34.43-.5v-1.1A1.13,1.13,0,0,1,207.19,208.7Z" transform="translate(-129.33 -24.17)"/><path class="cls-14" d="M207.19,207.6c.51.34.51.77,0,1.1l-3.72,2.2a1.82,1.82,0,0,1-1.86,0l-3.71-2.2c-.51-.33-.51-.76,0-1.1l3.71-2.19a1.82,1.82,0,0,1,1.86,0Z" transform="translate(-129.33 -24.17)"/></g><g class="cls-3"><path class="cls-15" d="M197.22,211.07l-3.72,2.2a1.82,1.82,0,0,1-1.86,0l-3.72-2.2c-.25-.17-.42-.34-.42-.51v1.1a.64.64,0,0,0,.42.51l3.72,2.2a1.82,1.82,0,0,0,1.86,0l3.72-2.2c.25-.17.42-.34.42-.51v-1.1C197.56,210.73,197.47,211,197.22,211.07Z" transform="translate(-129.33 -24.17)"/><path class="cls-14" d="M197.13,210.06c.51.33.51.76,0,1.09l-3.71,2.2a1.82,1.82,0,0,1-1.86,0l-3.72-2.2c-.51-.33-.51-.76,0-1.09l3.72-2.2a1.82,1.82,0,0,1,1.86,0Z" transform="translate(-129.33 -24.17)"/></g><g class="cls-3"><path class="cls-15" d="M218.43,206.76l-3.71,2.2a1.82,1.82,0,0,1-1.86,0l-3.72-2.2c-.26-.17-.43-.34-.43-.51v1.1a.63.63,0,0,0,.43.51l3.72,2.2a1.87,1.87,0,0,0,1.86,0l3.71-2.2c.26-.17.43-.34.43-.51v-1.1A1.15,1.15,0,0,1,218.43,206.76Z" transform="translate(-129.33 -24.17)"/><path class="cls-14" d="M218.43,205.66c.51.34.51.76,0,1.1l-3.71,2.2a1.82,1.82,0,0,1-1.86,0l-3.72-2.2c-.51-.34-.51-.76,0-1.1l3.72-2.2a1.82,1.82,0,0,1,1.86,0Z" transform="translate(-129.33 -24.17)"/></g><g class="cls-3"><path class="cls-15" d="M214.29,212.76l-3.72,2.2a1.82,1.82,0,0,1-1.86,0l-3.71-2.2c-.26-.17-.43-.34-.43-.51v1.1a.62.62,0,0,0,.43.51l3.71,2.2a1.82,1.82,0,0,0,1.86,0l3.72-2.2c.26-.17.43-.34.43-.51v-1.1A1.15,1.15,0,0,1,214.29,212.76Z" transform="translate(-129.33 -24.17)"/><path class="cls-14" d="M214.21,211.66c.51.34.51.76,0,1.1l-3.72,2.2a1.82,1.82,0,0,1-1.86,0l-3.72-2.2c-.51-.34-.51-.76,0-1.1l3.72-2.2a1.87,1.87,0,0,1,1.86,0Z" transform="translate(-129.33 -24.17)"/></g><g class="cls-3"><path class="cls-15" d="M204.23,215.21l-3.71,2.2a1.82,1.82,0,0,1-1.86,0l-3.72-2.2c-.26-.17-.43-.34-.43-.5v1.09a.62.62,0,0,0,.43.51l3.72,2.2a1.82,1.82,0,0,0,1.86,0l3.71-2.2c.26-.17.43-.34.43-.51v-1.09C204.66,214.87,204.49,215,204.23,215.21Z" transform="translate(-129.33 -24.17)"/><path class="cls-14" d="M204.23,214.11c.51.34.51.76,0,1.1l-3.71,2.2a1.82,1.82,0,0,1-1.86,0l-3.72-2.2c-.51-.34-.51-.76,0-1.1l3.72-2.19a1.82,1.82,0,0,1,1.86,0Z" transform="translate(-129.33 -24.17)"/></g><g class="cls-3"><path class="cls-15" d="M225.54,210.82,221.82,213a1.82,1.82,0,0,1-1.86,0l-3.72-2.19c-.26-.17-.43-.34-.43-.51v1.1a.63.63,0,0,0,.43.51l3.72,2.19a1.82,1.82,0,0,0,1.86,0l3.72-2.19c.25-.17.42-.34.42-.51v-1.1A1.19,1.19,0,0,1,225.54,210.82Z" transform="translate(-129.33 -24.17)"/><path class="cls-14" d="M225.54,209.72c.5.34.5.76,0,1.1L221.82,213a1.82,1.82,0,0,1-1.86,0l-3.72-2.19c-.51-.34-.51-.76,0-1.1l3.72-2.2a1.82,1.82,0,0,1,1.86,0Z" transform="translate(-129.33 -24.17)"/></g><g class="cls-3"><path class="cls-15" d="M221.31,216.9l-3.72,2.2a1.82,1.82,0,0,1-1.86,0L212,216.9c-.25-.17-.42-.34-.42-.5v1.09a.62.62,0,0,0,.42.51l3.72,2.2a1.82,1.82,0,0,0,1.86,0l3.72-2.2c.25-.17.42-.34.42-.51V216.4C221.73,216.56,221.56,216.73,221.31,216.9Z" transform="translate(-129.33 -24.17)"/><path class="cls-14" d="M221.31,215.8c.51.34.51.76,0,1.1l-3.72,2.2a1.82,1.82,0,0,1-1.86,0L212,216.9c-.51-.34-.51-.76,0-1.1l3.72-2.19a1.82,1.82,0,0,1,1.86,0Z" transform="translate(-129.33 -24.17)"/></g><g class="cls-3"><path class="cls-15" d="M211.33,219.27l-3.71,2.2a1.82,1.82,0,0,1-1.86,0l-3.72-2.2c-.26-.17-.43-.34-.43-.51v1.1a.63.63,0,0,0,.43.51l3.72,2.2a1.87,1.87,0,0,0,1.86,0l3.71-2.2c.26-.17.43-.34.43-.51v-1.1A.63.63,0,0,1,211.33,219.27Z" transform="translate(-129.33 -24.17)"/><path class="cls-14" d="M211.33,218.17c.51.34.51.76,0,1.1l-3.71,2.2a1.82,1.82,0,0,1-1.86,0l-3.72-2.2c-.51-.34-.51-.76,0-1.1l3.72-2.2a1.82,1.82,0,0,1,1.86,0Z" transform="translate(-129.33 -24.17)"/></g><g class="cls-3"><path class="cls-15" d="M232.64,215l-3.72,2.2a1.87,1.87,0,0,1-1.86,0l-3.72-2.2c-.26-.17-.43-.34-.43-.51v1.1a.63.63,0,0,0,.43.51l3.72,2.2a1.87,1.87,0,0,0,1.86,0l3.72-2.2c.25-.17.42-.34.42-.51v-1.1A2,2,0,0,1,232.64,215Z" transform="translate(-129.33 -24.17)"/><path class="cls-14" d="M232.64,213.86c.5.34.5.76,0,1.1l-3.72,2.2a1.87,1.87,0,0,1-1.86,0l-3.72-2.2c-.51-.34-.51-.76,0-1.1l3.72-2.2a1.82,1.82,0,0,1,1.86,0Z" transform="translate(-129.33 -24.17)"/></g><g class="cls-3"><path class="cls-15" d="M228.41,221l-3.72,2.2a1.82,1.82,0,0,1-1.86,0l-3.72-2.2c-.25-.17-.42-.34-.42-.51v1.1a.64.64,0,0,0,.42.51l3.72,2.2a1.87,1.87,0,0,0,1.86,0l3.72-2.2c.25-.17.42-.34.42-.51v-1.1C228.83,220.62,228.66,220.79,228.41,221Z" transform="translate(-129.33 -24.17)"/><path class="cls-14" d="M228.41,219.86c.51.34.51.76,0,1.1l-3.72,2.2a1.82,1.82,0,0,1-1.86,0l-3.72-2.2c-.51-.34-.51-.76,0-1.1l3.72-2.2a1.87,1.87,0,0,1,1.86,0Z" transform="translate(-129.33 -24.17)"/></g><g class="cls-3"><path class="cls-15" d="M218.43,223.41l-3.71,2.2a1.82,1.82,0,0,1-1.86,0l-3.72-2.2c-.26-.17-.43-.34-.43-.51V224a.62.62,0,0,0,.43.51l3.72,2.2a1.82,1.82,0,0,0,1.86,0l3.71-2.2c.26-.17.43-.34.43-.51v-1.1C218.86,223.07,218.69,223.24,218.43,223.41Z" transform="translate(-129.33 -24.17)"/><path class="cls-14" d="M218.43,222.31c.51.34.51.76,0,1.1l-3.71,2.2a1.82,1.82,0,0,1-1.86,0l-3.72-2.2c-.51-.34-.51-.76,0-1.1l3.72-2.2a1.87,1.87,0,0,1,1.86,0Z" transform="translate(-129.33 -24.17)"/></g><g class="cls-3"><path class="cls-15" d="M239.74,219,236,221.21a1.82,1.82,0,0,1-1.86,0L230.44,219c-.26-.17-.42-.34-.42-.51v1.1a.6.6,0,0,0,.42.5l3.72,2.2a1.82,1.82,0,0,0,1.86,0l3.72-2.2c.25-.16.42-.33.42-.5v-1.1A1.19,1.19,0,0,1,239.74,219Z" transform="translate(-129.33 -24.17)"/><path class="cls-14" d="M239.74,217.92c.5.34.5.76,0,1.1L236,221.21a1.82,1.82,0,0,1-1.86,0L230.44,219c-.51-.34-.51-.76,0-1.1l3.72-2.2a1.82,1.82,0,0,1,1.86,0Z" transform="translate(-129.33 -24.17)"/></g><g class="cls-3"><path class="cls-15" d="M235.51,225.1l-3.72,2.2a1.82,1.82,0,0,1-1.86,0l-3.72-2.2c-.25-.17-.42-.34-.42-.51v1.1a.62.62,0,0,0,.42.51l3.72,2.2a1.82,1.82,0,0,0,1.86,0l3.72-2.2c.25-.17.42-.34.42-.51v-1.1A1,1,0,0,1,235.51,225.1Z" transform="translate(-129.33 -24.17)"/><path class="cls-14" d="M235.51,224c.51.34.51.76,0,1.1l-3.72,2.2a1.82,1.82,0,0,1-1.86,0l-3.72-2.2c-.51-.34-.51-.76,0-1.1l3.72-2.19a1.82,1.82,0,0,1,1.86,0Z" transform="translate(-129.33 -24.17)"/></g><g class="cls-3"><path class="cls-15" d="M225.54,227.47l-3.72,2.2a1.87,1.87,0,0,1-1.86,0l-3.72-2.2c-.26-.17-.43-.34-.43-.51v1.1a.63.63,0,0,0,.43.51l3.72,2.19a1.82,1.82,0,0,0,1.86,0l3.72-2.19c.25-.17.42-.34.42-.51V227C226,227.13,225.79,227.3,225.54,227.47Z" transform="translate(-129.33 -24.17)"/><path class="cls-14" d="M225.54,226.37c.5.34.5.76,0,1.1l-3.72,2.2a1.87,1.87,0,0,1-1.86,0l-3.72-2.2c-.51-.34-.51-.76,0-1.1l3.72-2.2a1.82,1.82,0,0,1,1.86,0Z" transform="translate(-129.33 -24.17)"/></g><g class="cls-3"><path class="cls-15" d="M246.84,223.07l-3.72,2.2a1.82,1.82,0,0,1-1.86,0l-3.72-2.2c-.26-.17-.42-.33-.42-.5v1.09a.61.61,0,0,0,.42.51l3.72,2.2a1.82,1.82,0,0,0,1.86,0l3.72-2.2c.25-.17.42-.34.42-.51v-1.09C247.17,222.74,247.09,223,246.84,223.07Z" transform="translate(-129.33 -24.17)"/><path class="cls-14" d="M246.75,222.06c.51.34.51.76,0,1.1l-3.72,2.2a1.87,1.87,0,0,1-1.86,0l-3.72-2.2c-.5-.34-.5-.76,0-1.1l3.72-2.2a1.82,1.82,0,0,1,1.86,0Z" transform="translate(-129.33 -24.17)"/></g><g class="cls-3"><path class="cls-15" d="M242.61,229.16l-3.72,2.2a1.87,1.87,0,0,1-1.86,0l-3.72-2.2c-.25-.17-.42-.34-.42-.51v1.1a.64.64,0,0,0,.42.51l3.72,2.2a1.87,1.87,0,0,0,1.86,0l3.72-2.2c.25-.17.42-.34.42-.51v-1.1C243,228.82,242.86,229,242.61,229.16Z" transform="translate(-129.33 -24.17)"/><path class="cls-14" d="M242.61,228.06c.51.34.51.76,0,1.1l-3.72,2.2a1.87,1.87,0,0,1-1.86,0l-3.72-2.2c-.51-.34-.51-.76,0-1.1l3.72-2.2a1.82,1.82,0,0,1,1.86,0Z" transform="translate(-129.33 -24.17)"/></g><g class="cls-3"><path class="cls-15" d="M232.64,231.61l-3.72,2.2a1.82,1.82,0,0,1-1.86,0l-3.72-2.2c-.26-.17-.43-.34-.43-.51v1.1a.63.63,0,0,0,.43.51l3.72,2.2a1.87,1.87,0,0,0,1.86,0l3.72-2.2c.25-.17.42-.34.42-.51v-1.1C233.06,231.27,232.89,231.44,232.64,231.61Z" transform="translate(-129.33 -24.17)"/><path class="cls-14" d="M232.64,230.51c.5.34.5.76,0,1.1l-3.72,2.2a1.82,1.82,0,0,1-1.86,0l-3.72-2.2c-.51-.34-.51-.76,0-1.1l3.72-2.2a1.87,1.87,0,0,1,1.86,0Z" transform="translate(-129.33 -24.17)"/></g><g class="cls-3"><path class="cls-15" d="M253.85,227.21l-3.72,2.2a1.82,1.82,0,0,1-1.86,0l-3.72-2.2c-.25-.16-.42-.33-.42-.5v1.1a.61.61,0,0,0,.42.5l3.72,2.2a1.82,1.82,0,0,0,1.86,0l3.72-2.2c.25-.17.42-.33.42-.5v-1.1C254.27,226.88,254.1,227.05,253.85,227.21Z" transform="translate(-129.33 -24.17)"/><path class="cls-14" d="M253.85,226.12c.51.33.51.76,0,1.09l-3.72,2.2a1.82,1.82,0,0,1-1.86,0l-3.72-2.2c-.5-.33-.5-.76,0-1.09l3.72-2.2a1.82,1.82,0,0,1,1.86,0Z" transform="translate(-129.33 -24.17)"/></g><g class="cls-3"><path class="cls-15" d="M249.71,233.22,246,235.41a1.82,1.82,0,0,1-1.86,0l-3.72-2.19c-.25-.17-.42-.34-.42-.51v1.1a.64.64,0,0,0,.42.51l3.72,2.19a1.82,1.82,0,0,0,1.86,0l3.72-2.19c.25-.17.42-.34.42-.51v-1.1A.64.64,0,0,1,249.71,233.22Z" transform="translate(-129.33 -24.17)"/><path class="cls-14" d="M249.71,232.2c.51.34.51.76,0,1.1L246,235.5a1.82,1.82,0,0,1-1.86,0l-3.72-2.2c-.51-.34-.51-.76,0-1.1l3.72-2.2a1.87,1.87,0,0,1,1.86,0Z" transform="translate(-129.33 -24.17)"/></g><g class="cls-3"><path class="cls-15" d="M239.74,235.67l-3.72,2.2a1.87,1.87,0,0,1-1.86,0l-3.72-2.2c-.26-.17-.42-.34-.42-.51v1.1a.62.62,0,0,0,.42.51l3.72,2.19a1.82,1.82,0,0,0,1.86,0l3.72-2.19c.25-.17.42-.34.42-.51v-1.1A1.19,1.19,0,0,1,239.74,235.67Z" transform="translate(-129.33 -24.17)"/><path class="cls-14" d="M239.74,234.57c.5.34.5.76,0,1.1l-3.72,2.2a1.87,1.87,0,0,1-1.86,0l-3.72-2.2c-.51-.34-.51-.76,0-1.1l3.72-2.2a1.82,1.82,0,0,1,1.86,0Z" transform="translate(-129.33 -24.17)"/></g><g class="cls-3"><path class="cls-15" d="M261,231.27l-3.72,2.2a1.82,1.82,0,0,1-1.86,0l-3.72-2.2c-.25-.17-.42-.34-.42-.51v1.1a.62.62,0,0,0,.42.51l3.72,2.2a1.82,1.82,0,0,0,1.86,0l3.72-2.2c.26-.17.42-.34.42-.51v-1.1A.61.61,0,0,1,261,231.27Z" transform="translate(-129.33 -24.17)"/><path class="cls-14" d="M261,230.17c.51.34.51.76,0,1.1l-3.72,2.2a1.82,1.82,0,0,1-1.86,0l-3.72-2.2c-.5-.34-.5-.76,0-1.1l3.72-2.19a1.82,1.82,0,0,1,1.86,0Z" transform="translate(-129.33 -24.17)"/></g><g class="cls-3"><path class="cls-15" d="M258.92,235.5c-.25-.17-.42-.34-.42-.51v1.1a.64.64,0,0,0,.42.51l5.5,3.12v-1.09Z" transform="translate(-129.33 -24.17)"/><path class="cls-4" d="M264.42,238.63v1.09a.48.48,0,0,1,.25.43v-1.1C264.67,238.88,264.59,238.79,264.42,238.63Z" transform="translate(-129.33 -24.17)"/><path class="cls-15" d="M261,239.72l-3.72,2.2a1.82,1.82,0,0,1-1.86,0l-7.94-4.56c-.26-.17-.43-.34-.43-.51V238a.63.63,0,0,0,.43.51l7.94,4.56a1.82,1.82,0,0,0,1.86,0l3.72-2.2c.26-.17.42-.33.42-.5v-1.1A.6.6,0,0,1,261,239.72Z" transform="translate(-129.33 -24.17)"/><path class="cls-14" d="M261,238.71c.51.34.51.76,0,1.1l-3.72,2.2a1.82,1.82,0,0,1-1.86,0l-7.94-4.57c-.51-.34-.51-.76,0-1.1l3.72-2.19a1.82,1.82,0,0,1,1.86,0Z" transform="translate(-129.33 -24.17)"/><path class="cls-14" d="M275.41,238.54c.5.34.5.76,0,1.1l-3.72,2.2L268.14,244l-3.72,2.2a1.82,1.82,0,0,1-1.86,0l-3.72-2.2c-.51-.34-.51-.76,0-1.1l5.66-3.29c.34-.26.34-.6,0-.77L259,235.67c-.51-.34-.51-.76,0-1.1l3.72-2.2a1.82,1.82,0,0,1,1.86,0l3.72,2.2,3.29,1.94Z" transform="translate(-129.33 -24.17)"/><path class="cls-15" d="M275.41,239.64l-3.72,2.2L268.14,244l-3.72,2.2a1.82,1.82,0,0,1-1.86,0l-3.72-2.2c-.26-.17-.42-.34-.42-.51v1.1a.61.61,0,0,0,.42.51l3.72,2.2a1.82,1.82,0,0,0,1.86,0l3.72-2.2,3.55-2.11,3.72-2.2c.25-.17.42-.34.42-.51v-1.1A1.19,1.19,0,0,1,275.41,239.64Z" transform="translate(-129.33 -24.17)"/></g><g class="cls-3"><path class="cls-15" d="M246.84,239.72l-3.72,2.2a1.82,1.82,0,0,1-1.86,0l-3.72-2.2c-.26-.16-.42-.33-.42-.5v1.1a.6.6,0,0,0,.42.5l3.72,2.2a1.82,1.82,0,0,0,1.86,0l3.72-2.2c.25-.17.42-.33.42-.5v-1.1C247.17,239.39,247.09,239.64,246.84,239.72Z" transform="translate(-129.33 -24.17)"/><path class="cls-14" d="M246.84,238.71c.5.34.5.76,0,1.1l-3.72,2.2a1.82,1.82,0,0,1-1.86,0l-3.72-2.2c-.51-.34-.51-.76,0-1.1l3.72-2.2a1.82,1.82,0,0,1,1.86,0Z" transform="translate(-129.33 -24.17)"/></g><g class="cls-3"><path class="cls-15" d="M253.94,243.87l-3.72,2.19a1.82,1.82,0,0,1-1.86,0l-3.72-2.19c-.26-.17-.42-.34-.42-.51v1.1a.62.62,0,0,0,.42.51l3.72,2.19a1.82,1.82,0,0,0,1.86,0l3.72-2.19c.25-.17.42-.34.42-.51v-1.1A1.19,1.19,0,0,1,253.94,243.87Z" transform="translate(-129.33 -24.17)"/><path class="cls-14" d="M253.94,242.77c.5.34.5.76,0,1.1l-3.72,2.19a1.82,1.82,0,0,1-1.86,0l-3.72-2.19c-.51-.34-.51-.76,0-1.1l3.72-2.2a1.82,1.82,0,0,1,1.86,0Z" transform="translate(-129.33 -24.17)"/></g><g class="cls-3"><path class="cls-15" d="M261,247.92l-3.72,2.2a1.82,1.82,0,0,1-1.86,0l-3.72-2.2c-.26-.17-.42-.33-.42-.5v1.1a.61.61,0,0,0,.42.5l3.72,2.2a1.82,1.82,0,0,0,1.86,0L261,249c.25-.17.42-.34.42-.5v-1.1C261.37,247.59,261.29,247.84,261,247.92Z" transform="translate(-129.33 -24.17)"/><path class="cls-14" d="M261,246.91c.5.34.5.76,0,1.1l-3.72,2.2a1.87,1.87,0,0,1-1.86,0l-3.72-2.2c-.51-.34-.51-.76,0-1.1l3.72-2.2a1.82,1.82,0,0,1,1.86,0Z" transform="translate(-129.33 -24.17)"/></g><g class="cls-3"><path class="cls-15" d="M182.68,211.32l-3.72,2.2a1.82,1.82,0,0,1-1.86,0l-3.72-2.2-7.1-4c-.25-.17-.42-.34-.42-.51v1.1a.64.64,0,0,0,.42.51l7.1,4,3.72,2.2a1.82,1.82,0,0,0,1.86,0l3.72-2.2c.25-.17.42-.34.42-.5v-1.1C183.1,211,182.93,211.15,182.68,211.32Z" transform="translate(-129.33 -24.17)"/><path class="cls-14" d="M182.68,210.23c.51.33.51.76,0,1.09l-3.72,2.2a1.82,1.82,0,0,1-1.86,0l-3.72-2.2-7.1-4c-.5-.34-.5-.76,0-1.1L170,204a1.82,1.82,0,0,1,1.86,0L179,208Z" transform="translate(-129.33 -24.17)"/></g><g class="cls-3"><path class="cls-15" d="M194.77,218.34l-3.72,2.2a1.82,1.82,0,0,1-1.86,0l-3.72-2.2-1.27-.76-3.72-2.2c-.25-.17-.42-.34-.42-.51V216a.62.62,0,0,0,.42.51l3.72,2.2,1.27.76,3.72,2.2a1.87,1.87,0,0,0,1.86,0l3.72-2.2c.25-.17.42-.34.42-.51v-1.1A1,1,0,0,1,194.77,218.34Z" transform="translate(-129.33 -24.17)"/><path class="cls-14" d="M194.77,217.24c.5.34.5.76,0,1.1l-3.72,2.2a1.82,1.82,0,0,1-1.86,0l-3.72-2.2-1.27-.76-3.72-2.2c-.5-.34-.5-.76,0-1.1l3.72-2.2a1.87,1.87,0,0,1,1.86,0l3.72,2.2,1.27.76Z" transform="translate(-129.33 -24.17)"/></g><g class="cls-3"><path class="cls-15" d="M227.31,237.1l-3.72,2.2a1.82,1.82,0,0,1-1.86,0l-29.16-16.82c-.25-.17-.42-.34-.42-.51v1.1a.62.62,0,0,0,.42.51l29.16,16.82a1.82,1.82,0,0,0,1.86,0l3.72-2.2c.25-.17.42-.33.42-.5v-1.1C227.73,236.77,227.56,236.94,227.31,237.1Z" transform="translate(-129.33 -24.17)"/><path class="cls-14" d="M227.31,236c.51.33.51.76,0,1.09l-3.72,2.2a1.82,1.82,0,0,1-1.86,0l-29.16-16.82c-.51-.34-.51-.76,0-1.1l3.72-2.2a1.87,1.87,0,0,1,1.86,0Z" transform="translate(-129.33 -24.17)"/></g><g class="cls-3"><path class="cls-15" d="M239.4,244l-3.72,2.19a1.82,1.82,0,0,1-1.86,0L230.1,244l-1.27-.77-3.72-2.19c-.25-.17-.42-.34-.42-.51v1.1a.64.64,0,0,0,.42.51l3.72,2.19,1.27.76,3.72,2.2a1.82,1.82,0,0,0,1.86,0l3.72-2.2c.25-.16.42-.33.42-.5v-1.1A.64.64,0,0,1,239.4,244Z" transform="translate(-129.33 -24.17)"/><path class="cls-14" d="M239.4,243c.5.34.5.76,0,1.1l-3.72,2.2a1.82,1.82,0,0,1-1.86,0l-3.72-2.2-1.27-.76-3.72-2.2c-.5-.34-.5-.76,0-1.1l3.72-2.19a1.82,1.82,0,0,1,1.86,0l3.72,2.19,1.27.76Z" transform="translate(-129.33 -24.17)"/></g><g class="cls-3"><path class="cls-15" d="M246.5,248.18l-3.72,2.2a1.87,1.87,0,0,1-1.86,0l-3.72-2.2c-.25-.17-.42-.34-.42-.51v1.1a.64.64,0,0,0,.42.51l3.72,2.19a1.82,1.82,0,0,0,1.86,0l3.72-2.19c.25-.17.42-.34.42-.51v-1.1C246.92,247.84,246.75,248,246.5,248.18Z" transform="translate(-129.33 -24.17)"/><path class="cls-14" d="M246.5,247.08c.5.34.5.76,0,1.1l-3.72,2.2a1.87,1.87,0,0,1-1.86,0l-3.72-2.2c-.51-.34-.51-.76,0-1.1l3.72-2.2a1.82,1.82,0,0,1,1.86,0Z" transform="translate(-129.33 -24.17)"/></g><g class="cls-3"><path class="cls-15" d="M253.6,252.23l-3.72,2.2a1.82,1.82,0,0,1-1.86,0l-3.72-2.2c-.25-.16-.42-.33-.42-.5v1.1a.61.61,0,0,0,.42.5l3.72,2.2a1.82,1.82,0,0,0,1.86,0l3.72-2.2c.25-.17.42-.33.42-.5v-1.1A.61.61,0,0,1,253.6,252.23Z" transform="translate(-129.33 -24.17)"/><path class="cls-14" d="M253.6,251.14c.5.33.5.76,0,1.09l-3.72,2.2a1.82,1.82,0,0,1-1.86,0l-3.72-2.2c-.51-.33-.51-.76,0-1.09l3.72-2.2a1.82,1.82,0,0,1,1.86,0Z" transform="translate(-129.33 -24.17)"/></g><g class="cls-3"><path class="cls-15" d="M262,257.05l-3.72,2.2a1.82,1.82,0,0,1-1.86,0l-3.72-2.2c-.26-.17-.42-.34-.42-.5v1.09a.61.61,0,0,0,.42.51l3.72,2.2a1.82,1.82,0,0,0,1.86,0l3.72-2.2c.25-.17.42-.34.42-.51v-1.09C262.3,256.71,262.22,257,262,257.05Z" transform="translate(-129.33 -24.17)"/><path class="cls-14" d="M262,256c.5.34.5.76,0,1.1l-3.72,2.2a1.82,1.82,0,0,1-1.86,0l-3.72-2.2c-.51-.34-.51-.76,0-1.1l3.72-2.19a1.82,1.82,0,0,1,1.86,0Z" transform="translate(-129.33 -24.17)"/></g><g class="cls-3"><path class="cls-15" d="M276.34,256.88l-3.72,2.2a1.82,1.82,0,0,1-1.86,0l-3.72-2.2c-.26-.17-.43-.33-.43-.5v1.1a.62.62,0,0,0,.43.5l3.72,2.2a1.82,1.82,0,0,0,1.86,0l3.72-2.2c.25-.17.42-.34.42-.5v-1.1A.61.61,0,0,1,276.34,256.88Z" transform="translate(-129.33 -24.17)"/><path class="cls-14" d="M276.34,255.87c.5.34.5.76,0,1.1l-3.72,2.2a1.87,1.87,0,0,1-1.86,0L267,257c-.51-.34-.51-.76,0-1.1l3.72-2.2a1.82,1.82,0,0,1,1.86,0Z" transform="translate(-129.33 -24.17)"/></g><g class="cls-3"><path class="cls-15" d="M269.07,261.19l-3.72,2.2a1.82,1.82,0,0,1-1.86,0l-3.72-2.2c-.26-.16-.42-.33-.42-.5v1.1a.6.6,0,0,0,.42.5l3.72,2.2a1.82,1.82,0,0,0,1.86,0l3.72-2.2c.25-.17.42-.33.42-.5v-1.1A1.11,1.11,0,0,1,269.07,261.19Z" transform="translate(-129.33 -24.17)"/><path class="cls-14" d="M269,260.1c.51.33.51.76,0,1.09l-3.72,2.2a1.82,1.82,0,0,1-1.86,0l-3.72-2.2c-.5-.33-.5-.76,0-1.09l3.72-2.2a1.82,1.82,0,0,1,1.86,0Z" transform="translate(-129.33 -24.17)"/></g><g class="cls-3"><path class="cls-15" d="M276.08,265.25l-3.72,2.2a1.82,1.82,0,0,1-1.86,0l-3.72-2.2c-.25-.17-.42-.34-.42-.51v1.1a.62.62,0,0,0,.42.51l3.72,2.2a1.82,1.82,0,0,0,1.86,0l3.72-2.2c.26-.17.42-.34.42-.51v-1.1C276.5,264.91,276.34,265.08,276.08,265.25Z" transform="translate(-129.33 -24.17)"/><path class="cls-14" d="M276.08,264.15c.51.34.51.76,0,1.1l-3.72,2.2a1.82,1.82,0,0,1-1.86,0l-3.72-2.2c-.5-.34-.5-.76,0-1.1L270.5,262a1.82,1.82,0,0,1,1.86,0Z" transform="translate(-129.33 -24.17)"/></g><g class="cls-3"><path class="cls-15" d="M291,240.15l-1.86,1.1a1.87,1.87,0,0,1-1.86,0l-3.72-2.2c-.25-.17-.42-.34-.42-.51v1.1a.64.64,0,0,0,.42.51l3.72,2.2a1.87,1.87,0,0,0,1.86,0l1.86-1.1c.26-.17.43-.34.43-.51v-1.1C291.38,239.81,291.3,240.06,291,240.15Z" transform="translate(-129.33 -24.17)"/><path class="cls-14" d="M291,239.13c.51.34.51.76,0,1.1l-1.86,1.1a1.82,1.82,0,0,1-1.86,0l-3.72-2.2c-.5-.34-.5-.76,0-1.1l1.86-1.09a1.82,1.82,0,0,1,1.86,0Z" transform="translate(-129.33 -24.17)"/></g><g class="cls-3"><path class="cls-15" d="M298.14,244.29l-1.86,1.1a1.82,1.82,0,0,1-1.86,0l-3.72-2.2c-.25-.17-.42-.34-.42-.51v1.1a.64.64,0,0,0,.42.51l3.72,2.2a1.87,1.87,0,0,0,1.86,0l1.86-1.1c.26-.17.43-.34.43-.51v-1.1A1.15,1.15,0,0,1,298.14,244.29Z" transform="translate(-129.33 -24.17)"/><path class="cls-14" d="M298.14,243.19c.51.34.51.76,0,1.1l-1.86,1.1a1.82,1.82,0,0,1-1.86,0l-3.72-2.2c-.5-.34-.5-.76,0-1.1l1.86-1.1a1.82,1.82,0,0,1,1.86,0Z" transform="translate(-129.33 -24.17)"/></g><g class="cls-3"><path class="cls-15" d="M305.16,248.35l-1.86,1.1a1.87,1.87,0,0,1-1.86,0l-3.72-2.2c-.25-.17-.42-.34-.42-.51v1.1a.64.64,0,0,0,.42.51l3.72,2.19a1.82,1.82,0,0,0,1.86,0l1.86-1.09c.25-.17.42-.34.42-.51v-1.1C305.58,248,305.5,248.18,305.16,248.35Z" transform="translate(-129.33 -24.17)"/><path class="cls-14" d="M305.16,247.25c.51.34.51.76,0,1.1l-1.86,1.1a1.87,1.87,0,0,1-1.86,0l-3.72-2.2c-.51-.34-.51-.76,0-1.1l1.86-1.1a1.82,1.82,0,0,1,1.86,0Z" transform="translate(-129.33 -24.17)"/></g><g class="cls-3"><path class="cls-15" d="M285.55,243.36l-1.86,1.1a1.82,1.82,0,0,1-1.86,0l-3.72-2.2c-.25-.17-.42-.34-.42-.51v1.1a.64.64,0,0,0,.42.51l3.72,2.2a1.82,1.82,0,0,0,1.86,0l1.86-1.1c.25-.17.42-.34.42-.51v-1.1A1.12,1.12,0,0,1,285.55,243.36Z" transform="translate(-129.33 -24.17)"/><path class="cls-14" d="M285.55,242.26c.51.34.51.76,0,1.1l-1.86,1.1a1.82,1.82,0,0,1-1.86,0l-3.72-2.2c-.51-.34-.51-.76,0-1.1l1.86-1.1a1.82,1.82,0,0,1,1.86,0Z" transform="translate(-129.33 -24.17)"/></g><g class="cls-3"><path class="cls-15" d="M292.65,247.5l-1.86,1.1a1.82,1.82,0,0,1-1.86,0l-3.72-2.2c-.25-.17-.42-.34-.42-.5V247a.62.62,0,0,0,.42.51l3.72,2.2a1.82,1.82,0,0,0,1.86,0l1.86-1.1c.25-.17.42-.34.42-.51V247A1.76,1.76,0,0,1,292.65,247.5Z" transform="translate(-129.33 -24.17)"/><path class="cls-14" d="M292.65,246.4c.51.34.51.76,0,1.1l-1.86,1.1a1.82,1.82,0,0,1-1.86,0l-3.72-2.2c-.51-.34-.51-.76,0-1.1l1.86-1.1a1.87,1.87,0,0,1,1.86,0Z" transform="translate(-129.33 -24.17)"/></g><g class="cls-3"><path class="cls-15" d="M299.75,251.56l-1.86,1.1a1.82,1.82,0,0,1-1.86,0l-3.72-2.2c-.25-.17-.42-.34-.42-.51v1.1a.64.64,0,0,0,.42.51l3.72,2.2a1.87,1.87,0,0,0,1.86,0l1.86-1.1c.25-.17.42-.34.42-.51v-1.1A1.12,1.12,0,0,1,299.75,251.56Z" transform="translate(-129.33 -24.17)"/><path class="cls-14" d="M299.66,250.46c.51.34.51.76,0,1.1l-1.86,1.1a1.81,1.81,0,0,1-1.85,0l-3.72-2.2c-.51-.34-.51-.76,0-1.1l1.86-1.1a1.82,1.82,0,0,1,1.86,0Z" transform="translate(-129.33 -24.17)"/></g><path class="cls-11" d="M244.64,68.56c-5-3.47-11.41-8.54-21.22-11.33,2.79-9,1.61-15.47,1.69-25.86l22.82,13C248.27,53.43,247,63.4,244.64,68.56Z" transform="translate(-129.33 -24.17)"/><polygon class="cls-10" points="114.29 23.26 114.37 21.83 99.58 13.29 99.5 14.73 114.29 23.26"/><polygon class="cls-10" points="114.2 28.76 114.2 27.32 99.41 18.78 99.41 20.22 114.2 28.76"/><polygon class="cls-10" points="113.78 32.98 102.88 26.73 102.88 28.08 113.78 34.42 113.78 32.98"/><path class="cls-8" d="M360.27,213.27c-5-3.47-11.41-8.54-21.22-11.33,2.79-9,1.61-15.47,1.69-25.86l22.83,13C363.9,198.22,362.64,208.2,360.27,213.27Z" transform="translate(-129.33 -24.17)"/><polygon class="cls-7" points="230.01 167.97 230.01 166.53 215.21 158.08 215.21 159.43 230.01 167.97"/><polygon class="cls-7" points="229.84 173.47 229.84 172.03 215.04 163.58 215.04 165.01 229.84 173.47"/><polygon class="cls-7" points="229.41 177.69 218.51 171.44 218.51 172.87 229.41 179.13 229.41 177.69"/><polygon class="cls-34" points="201.99 240.43 196.69 237.43 204.54 233.16 209.83 236.22 201.99 240.43"/><polygon class="cls-35" points="208.88 244.38 203.58 241.38 211.43 237.11 216.72 240.11 208.88 244.38"/><polygon class="cls-36" points="215.76 248.27 210.47 245.27 218.31 241 223.61 244 215.76 248.27"/><polygon class="cls-37" points="222.65 252.22 217.36 249.23 225.2 244.95 230.5 247.95 222.65 252.22"/><polygon class="cls-2" points="229.54 256.12 224.25 253.12 232.09 248.84 237.38 251.84 229.54 256.12"/><polygon class="cls-38" points="191.59 246.04 186.36 243.04 194.21 238.83 199.5 241.83 191.59 246.04"/><polygon class="cls-39" points="198.48 249.99 193.25 247 201.1 242.72 206.39 245.72 198.48 249.99"/><polygon points="205.37 253.88 200.14 250.88 207.98 246.61 213.28 249.61 205.37 253.88"/><ellipse class="cls-2" cx="260.1" cy="232.63" rx="14.71" ry="6.76"/><g class="cls-3"><g class="cls-3"><g class="cls-40"><path class="cls-16" d="M376.75,252.07v2.28a4.87,4.87,0,0,0,1.35,3.29v-2.28a4.88,4.88,0,0,1-1.35-3.29Z" transform="translate(-129.33 -24.17)"/><path class="cls-15" d="M378.1,255.36v2.28a9.36,9.36,0,0,0,2.37,1.86,16.48,16.48,0,0,0,6.26,1.95v-2.28a16.48,16.48,0,0,1-6.26-1.95,9.36,9.36,0,0,1-2.37-1.86Z" transform="translate(-129.33 -24.17)"/><path class="cls-15" d="M386.73,259.17v2.28a19.5,19.5,0,0,0,11.58-1.95c2.53-1.43,3.72-3.29,3.72-5.24V252c0,1.86-1.27,3.8-3.72,5.24a19.57,19.57,0,0,1-11.58,1.95Z" transform="translate(-129.33 -24.17)"/></g></g><path class="cls-14" d="M380.47,246.82c-5,2.88-5,7.53-.08,10.4s12.93,2.88,17.92,0,5-7.52.08-10.4S385.46,244,380.47,246.82Z" transform="translate(-129.33 -24.17)"/><path class="cls-16" d="M382.16,256.21a16,16,0,0,0,14.37,0,7,7,0,0,0,1.69-1.36c2.11-2.28,1.61-5.15-1.69-7a16.12,16.12,0,0,0-14.45,0,5.49,5.49,0,0,0-2.54,2.45C378.61,252.32,379.37,254.6,382.16,256.21Z" transform="translate(-129.33 -24.17)"/><path class="cls-15" d="M382.16,256.21a16,16,0,0,0,14.37,0,7,7,0,0,0,1.69-1.36c1.1-2,.26-4.31-2.53-5.91a16,16,0,0,0-14.37,0,9.56,9.56,0,0,0-1.78,1.35C378.61,252.32,379.37,254.6,382.16,256.21Z" transform="translate(-129.33 -24.17)"/><path class="cls-41" d="M381.57,252.83a3.27,3.27,0,0,0,3,0,1.11,1.11,0,0,0,.34-.26c.25-.42.09-.93-.51-1.27a3.27,3.27,0,0,0-3,0,1.25,1.25,0,0,0-.34.26C380.81,252,381,252.49,381.57,252.83Z" transform="translate(-129.33 -24.17)"/></g><path class="cls-42" d="M371.34,209l5.41,43.11c0,1.86,1.19,3.8,3.64,5.24,3.72,2.2,9.21,2.71,13.86,1.61l3.8-50Z" transform="translate(-129.33 -24.17)"/><path class="cls-43" d="M398.05,209l-3.8,50a13.26,13.26,0,0,0,4.06-1.61c2.53-1.44,3.72-3.3,3.72-5.24L407.44,209Z" transform="translate(-129.33 -24.17)"/><g class="cls-3"><g class="cls-3"><g class="cls-44"><path class="cls-16" d="M369.74,205.83v3.47c0,1.77.67,4.9,2.11,6.5v-5a7.13,7.13,0,0,1-2.11-5Z" transform="translate(-129.33 -24.17)"/><path class="cls-15" d="M371.85,210.9v5a14.34,14.34,0,0,0,3.63,2.87,25.8,25.8,0,0,0,9.72,3.05v-5a25.34,25.34,0,0,1-9.72-3,14.36,14.36,0,0,1-3.63-2.88Z" transform="translate(-129.33 -24.17)"/><path class="cls-16" d="M385.2,216.9v5c6.26.76,13.11-.25,18-3,3.89-2.2,5.83-5.16,5.83-8.12v-5c0,2.95-1.94,5.83-5.83,8.11-4.9,2.79-11.75,3.8-18,3Z" transform="translate(-129.33 -24.17)"/></g></g><path class="cls-14" d="M375.57,197.72c-7.69,4.48-7.69,11.66-.09,16.06s20.12,4.48,27.81,0,7.78-11.67.09-16.06S383.26,193.24,375.57,197.72Z" transform="translate(-129.33 -24.17)"/></g><g class="cls-3"><g class="cls-3"><g class="cls-45"><path class="cls-16" d="M372.27,202.45v3a6.39,6.39,0,0,0,1.86,4.4v-3a7.12,7.12,0,0,1-1.86-4.39Z" transform="translate(-129.33 -24.17)"/><path class="cls-15" d="M374.13,206.84v3a12,12,0,0,0,3.13,2.53,23,23,0,0,0,8.45,2.71v-3a22,22,0,0,1-8.45-2.7,12,12,0,0,1-3.13-2.54Z" transform="translate(-129.33 -24.17)"/><path class="cls-15" d="M385.71,212v3c5.5.68,11.41-.25,15.64-2.7,3.38-2,5.07-4.48,5.07-7v-3c0,2.54-1.69,5.07-5.07,7-4.23,2.53-10.14,3.38-15.64,2.7Z" transform="translate(-129.33 -24.17)"/></g></g><path class="cls-14" d="M377.34,195.35c-6.67,3.89-6.76,10.14-.08,14s17.5,3.89,24.17,0,6.77-10.14.09-14S384,191.46,377.34,195.35Z" transform="translate(-129.33 -24.17)"/><path class="cls-16" d="M379.63,208c5.32,3.12,14.11,3.12,19.44,0a13.23,13.23,0,0,0,2.36-1.78c2.88-3,2.12-6.93-2.28-9.46-5.32-3.13-14.11-3.13-19.44,0a8.7,8.7,0,0,0-3.46,3.29C374.81,202.79,375.91,205.83,379.63,208Z" transform="translate(-129.33 -24.17)"/><path class="cls-15" d="M379.63,208c5.32,3.12,14.11,3.12,19.44,0a13.23,13.23,0,0,0,2.36-1.78c1.44-2.7.34-5.83-3.38-7.94-5.32-3.13-14-3.13-19.44,0a12.75,12.75,0,0,0-2.36,1.77C374.81,202.79,375.91,205.83,379.63,208Z" transform="translate(-129.33 -24.17)"/><path class="cls-16" d="M382.75,202.87c.17.09.34.25.51.34.09-.09.17-.17.25-.17.34-.59.09-1.27-.67-1.69a4.46,4.46,0,0,0-4.14,0,2.1,2.1,0,0,0-.51.42,1.07,1.07,0,0,0,.25,1.35c.09-.08.17-.08.26-.16A4.08,4.08,0,0,1,382.75,202.87Z" transform="translate(-129.33 -24.17)"/><path class="cls-46" d="M382.92,203.38c.09-.09.17-.09.26-.17a1.15,1.15,0,0,0-.51-.34,4.51,4.51,0,0,0-4.14,0c-.09.09-.17.09-.26.17a1.15,1.15,0,0,0,.51.34A4.51,4.51,0,0,0,382.92,203.38Z" transform="translate(-129.33 -24.17)"/></g></svg>